#!OML:ASF F:\twosubjects\two\Thursday\Session 1\Rory.ASF
:FULLY-SPECIFIED
:DEGREES
464
root 10.7951 18.2671 8.51264 -165.661 -77.7148 170.461
lowerback -3.09613 -2.53485 -1.7517
upperback -0.815533 -3.33848 0.521737
thorax 1.02766 -1.67604 1.37994
lowerneck 5.68495 -16.8703 -13.4041
upperneck 7.23318 -25.1231 15.9523
head 4.97443 -12.6895 5.51894
rclavicle -1.88845e-015 -5.56597e-015
rhumerus -58.7438 -50.1823 -49.9928
rradius 20.446
rwrist 19.0981
rhand -19.7166 27.0796
rfingers 7.12502
rthumb 6.61341 -2.79709
lclavicle -1.88845e-015 -5.56597e-015
lhumerus -53.8645 42.4095 62.2256
lradius 21.8637
lwrist -15.9252
lhand -9.68344 34.7935
lfingers 7.12502
lthumb 16.2885 64.1294
rfemur -14.2851 12.533 18.4788
rtibia 37.2479
rfoot -22.0382 -6.51306
rtoes 3.57574
lfemur -12.971 2.09449 -24.214
ltibia 35.1489
lfoot -21.704 0.183133
ltoes 12.1768
465
root 10.7698 18.289 8.5173 -165.648 -77.8557 170.877
lowerback -3.77108 -2.57199 -1.62468
upperback -0.847131 -3.38398 0.575249
thorax 1.37005 -1.70171 1.33004
lowerneck 5.58225 -16.92 -13.3104
upperneck 6.91075 -25.1464 16.1591
head 4.91185 -12.6953 5.56413
rclavicle 7.35379e-014 3.97569e-016
rhumerus -59.8371 -50.8729 -48.2588
rradius 20.5259
rwrist 20.2968
rhand -19.1923 26.5572
rfingers 7.12502
rthumb 7.11956 -3.30301
lclavicle 7.35379e-014 3.97569e-016
lhumerus -53.8177 42.2885 61.9928
lradius 21.8246
lwrist -17.2259
lhand -9.48973 34.4501
lfingers 7.12502
lthumb 16.475 63.7706
rfemur -14.5268 11.8448 18.475
rtibia 37.0076
rfoot -21.6551 -6.45532
rtoes 0.995642
lfemur -13.1178 2.04923 -24.1271
ltibia 34.7186
lfoot -21.8399 -0.0851431
ltoes 14.2044
466
root 10.7479 18.3035 8.51486 -164.851 -77.8525 170.495
lowerback -4.39592 -2.49332 -1.66333
upperback -0.902875 -3.26848 0.488127
thorax 1.65474 -1.6466 1.24088
lowerneck 5.42277 -17.0647 -13.2793
upperneck 6.70736 -25.3386 16.4605
head 4.94124 -12.7796 5.60906
rclavicle -2.90598e-014 -2.98177e-015
rhumerus -60.0121 -50.8656 -47.9116
rradius 20.7736
rwrist 20.1052
rhand -19.0613 25.1649
rfingers 7.12502
rthumb 7.24597 -4.691
lclavicle -2.90598e-014 -2.98177e-015
lhumerus -53.3247 41.4016 62.1955
lradius 21.8147
lwrist -18.0503
lhand -9.47433 33.7704
lfingers 7.12502
lthumb 16.4898 63.0897
rfemur -14.8381 11.6659 18.3212
rtibia 36.8539
rfoot -21.2568 -6.82306
rtoes -1.71601
lfemur -13.322 2.244 -24.2356
ltibia 34.2717
lfoot -21.8126 -0.278248
ltoes 14.4478
467
root 10.7282 18.3189 8.51042 -163.953 -77.8526 170.148
lowerback -5.07226 -2.43319 -1.70148
upperback -1.03611 -3.17851 0.427143
thorax 1.89085 -1.60414 1.17816
lowerneck 5.14779 -17.2281 -13.483
upperneck 6.73846 -25.5868 16.7037
head 5.092 -12.8842 5.63369
rclavicle 3.01407e-014 -1.39149e-015
rhumerus -59.374 -50.182 -48.5491
rradius 21.0876
rwrist 19.262
rhand -20.0202 24.3446
rfingers 7.12502
rthumb 6.32029 -5.54116
lclavicle 3.01407e-014 -1.39149e-015
lhumerus -52.6864 40.0213 62.8095
lradius 21.9683
lwrist -17.8559
lhand -10.1801 33.8347
lfingers 7.12502
lthumb 15.8102 63.2091
rfemur -15.376 11.7557 18.1274
rtibia 36.7696
rfoot -21.0824 -6.97776
rtoes -2.29525
lfemur -13.6821 2.27767 -24.3427
ltibia 33.8198
lfoot -21.644 -0.225588
ltoes 13.9948
468
root 10.7185 18.3324 8.50964 -162.648 -77.7712 169.384
lowerback -5.54337 -2.50907 -1.96873
upperback -1.29954 -3.26452 0.448787
thorax 1.90155 -1.64936 1.32877
lowerneck 5.35972 -17.2065 -13.7054
upperneck 6.4997 -25.5718 16.8765
head 5.0344 -12.8949 5.73851
rclavicle -4.28132e-014 6.95746e-015
rhumerus -58.5859 -49.2065 -49.124
rradius 21.1711
rwrist 19.209
rhand -21.3775 24.4647
rfingers 7.12502
rthumb 5.00984 -5.45609
lclavicle -4.28132e-014 6.95746e-015
lhumerus -52.4807 38.6382 63.2234
lradius 22.3587
lwrist -17.1321
lhand -11.207 34.3405
lfingers 7.12502
lthumb 14.8211 63.7904
rfemur -15.955 11.6293 17.791
rtibia 36.6817
rfoot -21.0966 -6.81069
rtoes -2.45947
lfemur -14.047 2.27527 -24.5594
ltibia 33.436
lfoot -21.4913 -0.223361
ltoes 14.1634
469
root 10.7216 18.3414 8.5018 -160.775 -77.5958 167.744
lowerback -5.54258 -2.55787 -2.61056
upperback -1.44773 -3.29758 0.436103
thorax 1.78466 -1.66739 1.67532
lowerneck 5.47675 -17.2292 -13.8854
upperneck 6.22198 -25.6259 17.2128
head 5.00846 -12.9325 5.86612
rclavicle -4.08751e-014 -5.76476e-015
rhumerus -57.737 -48.7809 -49.3041
rradius 20.8878
rwrist 19.6032
rhand -22.1927 24.0475
rfingers 7.12502
rthumb 4.22265 -5.89037
lclavicle -4.08751e-014 -5.76476e-015
lhumerus -52.0958 37.6216 63.5137
lradius 22.6918
lwrist -16.8893
lhand -11.8825 34.4688
lfingers 7.12502
lthumb 14.1702 63.9656
rfemur -16.192 11.6562 17.3452
rtibia 36.5585
rfoot -21.2647 -6.71328
rtoes -1.70698
lfemur -14.1896 3.32587 -24.8999
ltibia 33.1779
lfoot -21.391 -1.27893
ltoes 14.4865
470
root 10.7153 18.3418 8.50265 -159.944 -77.5945 167.015
lowerback -5.52757 -2.43613 -2.75764
upperback -1.35698 -3.12284 0.330104
thorax 1.86287 -1.58173 1.66001
lowerneck 4.94185 -17.5877 -13.9531
upperneck 6.24729 -26.1431 17.6441
head 5.25466 -13.1473 5.85861
rclavicle -5.75979e-014 -1.39149e-015
rhumerus -56.6852 -48.7554 -49.7109
rradius 20.9108
rwrist 18.5175
rhand -23.1235 22.623
rfingers 7.12502
rthumb 3.3238 -7.33085
lclavicle -5.75979e-014 -1.39149e-015
lhumerus -51.2197 37.1561 63.753
lradius 22.8202
lwrist -17.4806
lhand -12.7598 34.5759
lfingers 7.12502
lthumb 13.3248 64.1299
rfemur -16.2077 11.5471 17.1459
rtibia 36.401
rfoot -21.417 -6.63433
rtoes -0.929101
lfemur -14.2269 3.59274 -25.0996
ltibia 33.0461
lfoot -21.6206 -1.37289
ltoes 13.5042
471
root 10.7189 18.3258 8.50717 -160.109 -77.7187 167.326
lowerback -5.37916 -2.39837 -2.69855
upperback -1.31116 -3.07898 0.373074
thorax 1.82442 -1.55901 1.67978
lowerneck 4.61995 -17.9349 -13.8012
upperneck 5.71565 -26.4871 17.7758
head 5.19824 -13.2981 5.8088
rclavicle -2.7892e-014 -9.54166e-015
rhumerus -54.9455 -47.8532 -51.2139
rradius 21.4618
rwrist 16.6029
rhand -24.9759 21.7787
rfingers 7.12502
rthumb 1.53487 -8.19552
lclavicle -2.7892e-014 -9.54166e-015
lhumerus -50.8523 37.408 63.3973
lradius 23.0117
lwrist -18.4497
lhand -14.0843 34.7709
lfingers 7.12502
lthumb 12.0478 64.4041
rfemur -16.2586 11.2167 17.2773
rtibia 36.2187
rfoot -21.5215 -6.74666
rtoes -1.47136
lfemur -14.3631 3.39574 -25.0427
ltibia 33.0142
lfoot -21.8666 -0.781418
ltoes 10.8848
472
root 10.7298 18.3041 8.50836 -160.99 -77.7833 168.373
lowerback -5.1897 -2.44055 -2.63187
upperback -1.33811 -3.14655 0.499153
thorax 1.69798 -1.59079 1.77615
lowerneck 4.70731 -18.334 -13.1518
upperneck 4.63351 -26.7012 17.1923
head 4.71752 -13.4213 5.59939
rclavicle -6.94628e-014 1.41137e-014
rhumerus -53.2195 -46.7151 -52.7352
rradius 21.911
rwrist 15.3357
rhand -26.2141 21.0717
rfingers 7.12502
rthumb 0.338951 -8.90775
lclavicle -6.94628e-014 1.41137e-014
lhumerus -50.7179 37.41 62.9391
lradius 23.3503
lwrist -18.8971
lhand -15.052 35.2546
lfingers 7.12502
lthumb 11.1146 64.9402
rfemur -16.3858 11.0467 17.5954
rtibia 36.0387
rfoot -21.4369 -7.23012
rtoes -3.59311
lfemur -14.5701 3.63346 -24.8314
ltibia 33.0182
lfoot -21.8091 -0.52836
ltoes 7.21085
473
root 10.7424 18.2931 8.50199 -161.768 -77.6763 169.214
lowerback -5.00997 -2.42765 -2.62833
upperback -1.3129 -3.13218 0.426297
thorax 1.6187 -1.58249 1.70775
lowerneck 5.11056 -18.6512 -12.8405
upperneck 3.62326 -26.9932 17.318
head 4.36831 -13.6044 5.64547
rclavicle 1.33931e-014 5.36719e-015
rhumerus -51.9282 -45.9911 -53.944
rradius 22.2803
rwrist 14.383
rhand -27.3866 20.5089
rfingers 7.12502
rthumb -0.793439 -9.46935
lclavicle 1.33931e-014 5.36719e-015
lhumerus -50.2604 36.6901 62.7073
lradius 23.8689
lwrist -18.6762
lhand -15.5117 35.9282
lfingers 7.12502
lthumb 10.6712 65.6372
rfemur -16.427 11.218 17.8449
rtibia 35.9023
rfoot -21.2597 -7.92971
rtoes -6.5074
lfemur -14.6494 4.13042 -24.6926
ltibia 32.9977
lfoot -21.8022 -0.755217
ltoes 6.68209
474
root 10.7501 18.2845 8.49309 -160.962 -77.4186 168.355
lowerback -4.7835 -2.35594 -3.01113
upperback -1.2812 -3.02049 0.224708
thorax 1.52787 -1.52666 1.73111
lowerneck 6.05025 -18.3233 -14.675
upperneck 3.19508 -27.0658 19.9715
head 4.74021 -13.7247 6.65945
rclavicle -1.04486e-014 3.97569e-016
rhumerus -50.6299 -44.9279 -55.3741
rradius 22.9297
rwrist 13.2297
rhand -28.9811 20.5177
rfingers 7.12502
rthumb -2.33343 -9.44933
lclavicle -1.04486e-014 3.97569e-016
lhumerus -49.6439 35.6627 62.7043
lradius 24.4291
lwrist -18.0355
lhand -15.9323 36.4343
lfingers 7.12502
lthumb 10.2654 66.1638
rfemur -16.3718 11.1072 17.61
rtibia 35.8003
rfoot -21.5163 -7.83424
rtoes -6.54124
lfemur -14.5676 4.54577 -24.9801
ltibia 32.9265
lfoot -22.2937 -0.914675
ltoes 9.2153
